<svg height="24" width="24" xmlns="http://www.w3.org/2000/svg"><g transform="translate(0 -1028.4)"><path d="m4 1031.4c-1.1046 0-2 .9-2 2v16c0 1.1.8954 2 2 2h16c1.105 0 2-.9 2-2v-16c0-1.1-.895-2-2-2z" fill="#30497b"/><path d="m4 2c-1.1046 0-2 .8954-2 2v16c0 1.105.8954 2 2 2h16c1.105 0 2-.895 2-2v-16c0-1.1046-.895-2-2-2z" fill="#3b5998" transform="translate(0 1028.4)"/><path d="m17 1034.4c-2.209 0-4 1.8-4 4v3h-2v3h2v7h3v-7h2.454l.546-3h-3v-3c0-.6.448-1 1-1h2v-3z" fill="#30497b"/><path d="m17 5c-2.209 0-4 1.7909-4 4v3h-2v3h2v7h3v-7h2.454l.546-3h-3v-3c0-.5523.448-1 1-1h2v-3z" fill="#ecf0f1" transform="translate(0 1028.4)"/><path d="m13 1050.4h3v1h-3z" fill="#bdc3c7"/></g></svg>